# xmcd
#
# Track frame offsets: 
#        150
#        24544
#        59812
#        92636
#        127137
#        142603
#        158281
#        172646
#        199328
#        217805
#        247759
#        276927
#        299806
#
# Disc length: 4452 seconds
#
# Revision: 0
# Processed by: cddbd v1.5.2PL0 Copyright (c) Steve Scherf et al.
# Submitted via: ExactAudioCopy v1.0b3
#
DISCID=b611620d
DTITLE=Various Artist - The Best In Trance Vol. 2 - CD 1
DYEAR=1900
DGENRE=
TTITLE0=ATB - Ecstasy (Clubb Mix)
TTITLE1=Niels Van Gogh - One Way Out (Xtd Club Mix)
TTITLE2=Pedro Del Mar Meets Sasha Da Link - The Key (Original Vocal)
TTITLE3=Orion Too - Call Me (ElektroKid Darkness Remix)
TTITLE4=Tiesto - Adagio For Strings (Radio Edit)
TTITLE5=Osiris Project Feat. Hanna - Never Let U Go (Radio Cut)
TTITLE6=Riot 303 Vs. Observer - Keep Da Vibe Alive
TTITLE7=Alex B. Meets John P. - Never Let This Record Stop (Club Mix)
TTITLE8=Lab - Stay This Time (Radio Edit)
TTITLE9=The First Trance Opera In The World - Your Only Motions (Club 
TTITLE9=Mix)
TTITLE10=Stagediverz - Ready 2 Go (Stagediverz Restarted Extended)
TTITLE11=Lichtenfels - B-Boys Fly Girls (Ole Van Dansk Rmx)
TTITLE12=Cappella - Angel (Niels Van Gogh and Defunct Rmx)
EXTD=
EXTT0=
EXTT1=
EXTT2=
EXTT3=
EXTT4=
EXTT5=
EXTT6=
EXTT7=
EXTT8=
EXTT9=
EXTT10=
EXTT11=
EXTT12=
PLAYORDER=
